<svg xmlns="http://www.w3.org/2000/svg" viewBox="0 0 418.413 168.306"><defs><style>.cls-1{fill:#666}</style></defs><path class="cls-1" d="M189.408 40.881a1.176 1.176 0 01-.336.72.921.921 0 01-.672.288.957.957 0 01-.744-.288 1.022 1.022 0 01-.264-.72V9.3a1.008 1.008 0 112.016 0zM208.416 17.649a8.781 8.781 0 014.919 1.464 7.467 7.467 0 013.048 4.584l-.624.432.24-.912a6.866 6.866 0 012.185-2.832 13 13 0 013.5-1.992 10.514 10.514 0 013.768-.744 8.4 8.4 0 014.751 1.248 7.4 7.4 0 012.76 3.336 11.976 11.976 0 01.889 4.728v13.968a.964.964 0 01-.265.672.984.984 0 01-1.391 0 .963.963 0 01-.264-.672V27.152a10.376 10.376 0 00-.7-3.863 6.059 6.059 0 00-2.16-2.784 6.485 6.485 0 00-3.816-1.032 8.58 8.58 0 00-4.032 1.032 9.234 9.234 0 00-3.24 2.784 6.422 6.422 0 00-1.272 3.863v13.777a.968.968 0 01-.264.672.985.985 0 01-1.392 0 .96.96 0 01-.265-.672V26.913a10.351 10.351 0 00-.647-3.744 5.824 5.824 0 00-2.04-2.688 6.169 6.169 0 00-3.7-1.008 8.238 8.238 0 00-3.913 1.008 9.3 9.3 0 00-3.143 2.688 6.122 6.122 0 00-1.248 3.744v14.016a.984.984 0 01-.961.96.9.9 0 01-.7-.288.96.96 0 01-.265-.672V18.9a.984.984 0 01.96-.96.9.9 0 01.7.288.968.968 0 01.264.672v5.232l-1.441 2.448a7.045 7.045 0 01.816-3.264 10.388 10.388 0 012.184-2.856 11.087 11.087 0 013.12-2.04 8.938 8.938 0 013.639-.771zM261.456 17.937a.9.9 0 01.7.288.968.968 0 01.264.672v22.032a.986.986 0 01-.96.96.9.9 0 01-.7-.288.962.962 0 01-.263-.672v-6.817l.767-.624a7.119 7.119 0 01-.767 3.12 10.118 10.118 0 01-2.113 2.88 10.562 10.562 0 01-3.168 2.089 9.773 9.773 0 01-3.935.792 10.1 10.1 0 01-5.737-1.68 11.588 11.588 0 01-3.96-4.56 14.3 14.3 0 01-1.439-6.48 13.751 13.751 0 011.464-6.456 11.332 11.332 0 013.983-4.416 10.352 10.352 0 015.689-1.608 10.193 10.193 0 013.887.744 9.706 9.706 0 015.329 5.232 9.881 9.881 0 01.767 3.912l-.767-1.2V18.9a.962.962 0 01.263-.672.9.9 0 01.696-.291zm-10.081 22.608a8.421 8.421 0 004.8-1.416 9.62 9.62 0 003.313-3.889 12.645 12.645 0 001.2-5.591 12.017 12.017 0 00-1.2-5.4 9.708 9.708 0 00-3.313-3.84 8.421 8.421 0 00-4.8-1.416 8.551 8.551 0 00-4.751 1.368 9.545 9.545 0 00-3.336 3.768 11.972 11.972 0 00-1.224 5.52 12.631 12.631 0 001.2 5.591 9.6 9.6 0 003.313 3.889 8.415 8.415 0 004.798 1.416zM280.319 17.169a10.523 10.523 0 014.032.768 11.544 11.544 0 013.287 2.016 10.1 10.1 0 012.209 2.688 5.859 5.859 0 01.791 2.832l-.623-1.776V18.9a.963.963 0 01.264-.672.985.985 0 011.392 0 .972.972 0 01.264.672v20.64a12.822 12.822 0 01-1.512 6.384 10.422 10.422 0 01-4.152 4.128 12.637 12.637 0 01-6.145 1.439 15.353 15.353 0 01-3.864-.5 12.491 12.491 0 01-3.239-1.271q-1.3-.77-1.3-1.632a.889.889 0 01.216-.624.76.76 0 01.6-.24 1.141 1.141 0 01.889.528 3.506 3.506 0 001.464.96c.288.1.679.223 1.176.384a12.409 12.409 0 001.8.408 15.155 15.155 0 002.352.168 9.331 9.331 0 007.176-2.808 10.316 10.316 0 002.616-7.32v-4.759l.479.048a10.179 10.179 0 01-1.68 3.5 9.608 9.608 0 01-2.52 2.328 10.627 10.627 0 01-2.975 1.3 11.848 11.848 0 01-3 .408 10.854 10.854 0 01-5.928-1.656 11.882 11.882 0 01-4.152-4.513 13.393 13.393 0 01-1.536-6.455 13.4 13.4 0 011.536-6.456 11.7 11.7 0 014.152-4.488 10.964 10.964 0 015.931-1.632zm.1 1.824a9.279 9.279 0 00-5.016 1.392 9.718 9.718 0 00-3.5 3.816 11.739 11.739 0 00-1.272 5.544 11.781 11.781 0 001.272 5.52 9.847 9.847 0 003.5 3.864 9.162 9.162 0 005.016 1.416 9.289 9.289 0 004.992-1.368 9.79 9.79 0 003.5-3.792 11.771 11.771 0 001.3-5.64 11.777 11.777 0 00-1.3-5.64 9.611 9.611 0 00-3.5-3.768 9.414 9.414 0 00-4.996-1.344zM309.55 42.369a12.845 12.845 0 01-6.359-1.536 11.122 11.122 0 01-4.345-4.345 13.219 13.219 0 01-1.584-6.6 14.037 14.037 0 011.561-6.864 11.384 11.384 0 014.032-4.344 9.9 9.9 0 015.256-1.512 12.223 12.223 0 013.935.648 9.677 9.677 0 013.432 2.016 10.325 10.325 0 012.448 3.408 12.655 12.655 0 011.032 4.871 1 1 0 01-.288.7.884.884 0 01-.671.312h-19.584l-.289-1.824h19.344l-.479.432v-.865a7.921 7.921 0 00-1.609-4.271 8.942 8.942 0 00-3.288-2.616 9.387 9.387 0 00-3.983-.888 7.99 7.99 0 00-3.025.648 9.075 9.075 0 00-2.927 1.968 9.974 9.974 0 00-2.185 3.336 12.183 12.183 0 00-.84 4.7 12.255 12.255 0 001.176 5.376 9.441 9.441 0 003.5 3.936 10.438 10.438 0 005.735 1.488 8.493 8.493 0 003.073-.553 9.731 9.731 0 002.591-1.464 8.916 8.916 0 001.872-1.967 1.1 1.1 0 01.817-.432.751.751 0 01.575.264.869.869 0 01.24.6.894.894 0 01-.191.576 14.213 14.213 0 01-3.817 3.361 9.615 9.615 0 01-5.155 1.441zM199.872 65.889a9.561 9.561 0 014.776 1.151 8.081 8.081 0 013.168 3.216 9.859 9.859 0 011.128 4.8 10.31 10.31 0 01-1.128 4.847 8.563 8.563 0 01-3.168 3.409 8.969 8.969 0 01-4.776 1.248h-10.656l.192-.336v14.3a.887.887 0 01-.312.672 1 1 0 01-.7.288.946.946 0 01-1.008-.96V66.849a.984.984 0 01.96-.96zm0 16.752a6.914 6.914 0 003.768-.985 6.64 6.64 0 002.424-2.712 8.572 8.572 0 00.864-3.887 7.959 7.959 0 00-.864-3.817 6.339 6.339 0 00-2.424-2.519 7.336 7.336 0 00-3.768-.912h-10.608l.144-.241v15.216l-.192-.143zM216.047 99.488a.892.892 0 01-.695-.288.958.958 0 01-.265-.672V76.5a.984.984 0 01.96-.96.9.9 0 01.7.288.968.968 0 01.263.672v8.112l-.815 1.249a11.828 11.828 0 01.647-3.792 12.619 12.619 0 011.9-3.577 10.031 10.031 0 013.048-2.688 8.2 8.2 0 014.152-1.031 5.991 5.991 0 011.439.191.884.884 0 01.769.912 1.087 1.087 0 01-.24.72.774.774 0 01-.624.288 1.541 1.541 0 01-.7-.216 2.579 2.579 0 00-1.175-.216 5.738 5.738 0 00-3.025.912 10.719 10.719 0 00-2.712 2.424 12.923 12.923 0 00-1.943 3.288 9.174 9.174 0 00-.721 3.456v12a.982.982 0 01-.96.96zM253.68 87.393a13.315 13.315 0 01-1.536 6.407 11.776 11.776 0 01-4.2 4.513 11.916 11.916 0 01-12.12 0 11.9 11.9 0 01-4.248-4.513 14.038 14.038 0 010-12.863 11.888 11.888 0 014.248-4.513 11.922 11.922 0 0112.12 0 11.769 11.769 0 014.2 4.513 13.42 13.42 0 011.536 6.456zm-1.92 0a11.766 11.766 0 00-1.272-5.544 9.906 9.906 0 00-3.5-3.841 9.892 9.892 0 00-10.2 0 10.024 10.024 0 00-3.552 3.841 12.4 12.4 0 000 11.04 10.021 10.021 0 003.552 3.84 9.892 9.892 0 0010.2 0 9.9 9.9 0 003.5-3.84 11.661 11.661 0 001.272-5.496zM270.383 74.769a16.539 16.539 0 014.057.479 9.781 9.781 0 013.071 1.273q1.176.79 1.177 1.656a1 1 0 01-.265.647.812.812 0 01-.647.313 1.191 1.191 0 01-.84-.288 6.816 6.816 0 01-.648-.7 3.026 3.026 0 00-1.056-.744 7.787 7.787 0 00-1.9-.576 15.976 15.976 0 00-3-.24 9.406 9.406 0 00-5.087 1.44 10.638 10.638 0 00-3.672 3.865 10.888 10.888 0 00-1.369 5.448 11.774 11.774 0 001.273 5.519 9.73 9.73 0 003.552 3.865 9.841 9.841 0 005.3 1.416 10.134 10.134 0 003.289-.409 11.684 11.684 0 001.944-.887 4.439 4.439 0 001.391-1.105 1.114 1.114 0 01.913-.528.767.767 0 01.6.24.9.9 0 01.217.624q0 .576-1.057 1.512a9.52 9.52 0 01-2.952 1.656 12.6 12.6 0 01-4.487.721A11.376 11.376 0 01259.8 93.8a13.58 13.58 0 01-1.511-6.455 13.084 13.084 0 011.511-6.217 12.193 12.193 0 014.225-4.607 11.459 11.459 0 016.358-1.752zM295.2 99.969a12.857 12.857 0 01-6.36-1.536 11.118 11.118 0 01-4.343-4.345 13.2 13.2 0 01-1.584-6.6 14.042 14.042 0 011.559-6.864 11.391 11.391 0 014.028-4.344 9.915 9.915 0 015.256-1.511 12.228 12.228 0 013.936.647 9.69 9.69 0 013.431 2.017 10.334 10.334 0 012.449 3.407 12.679 12.679 0 011.032 4.872 1 1 0 01-.288.7.888.888 0 01-.672.313h-19.581l-.288-1.824h19.344l-.48.431v-.864a7.926 7.926 0 00-1.608-4.272 8.961 8.961 0 00-3.288-2.616 9.393 9.393 0 00-3.984-.887 7.983 7.983 0 00-3.024.647 9.1 9.1 0 00-2.928 1.969 9.96 9.96 0 00-2.183 3.336 13.191 13.191 0 00.335 10.08 9.443 9.443 0 003.5 3.935 10.43 10.43 0 005.736 1.489 8.488 8.488 0 003.072-.553 9.764 9.764 0 002.592-1.464 8.966 8.966 0 001.872-1.968 1.1 1.1 0 01.816-.431.749.749 0 01.575.263.868.868 0 01.241.6.9.9 0 01-.192.576 14.222 14.222 0 01-3.816 3.36 9.62 9.62 0 01-5.155 1.437zM309.549 95.649a1.771 1.771 0 01-.311-.937.784.784 0 01.36-.6.8.8 0 01.648-.215.971.971 0 01.7.359 9.685 9.685 0 003.191 2.881 9.129 9.129 0 004.584 1.1 8.893 8.893 0 003.049-.528 5.737 5.737 0 002.4-1.584 3.764 3.764 0 00.936-2.592 3.7 3.7 0 00-.912-2.616 6.39 6.39 0 00-2.353-1.56 22.508 22.508 0 00-3.023-.96q-1.682-.432-3.192-.984a10.706 10.706 0 01-2.665-1.392 6.541 6.541 0 01-1.824-1.992 5.331 5.331 0 01-.672-2.736 5.85 5.85 0 011.008-3.359 6.726 6.726 0 012.832-2.329 10.019 10.019 0 014.225-.839 11.249 11.249 0 012.448.288 10.127 10.127 0 012.592.983 8.765 8.765 0 012.4 1.944.792.792 0 01.361.7 1.135 1.135 0 01-.361.743 1.093 1.093 0 01-.624.192.722.722 0 01-.575-.288 7.825 7.825 0 00-2.9-2.063 9.279 9.279 0 00-3.529-.673 8.153 8.153 0 00-2.952.528 5.367 5.367 0 00-2.231 1.561 3.934 3.934 0 00-.864 2.615 3.716 3.716 0 001.032 2.448 7.086 7.086 0 002.5 1.584 31.463 31.463 0 003.527 1.153 26.548 26.548 0 012.952.887 9.492 9.492 0 012.4 1.273 5.57 5.57 0 011.632 1.92 6.2 6.2 0 01.6 2.88 5.693 5.693 0 01-1.08 3.479 6.9 6.9 0 01-2.975 2.257 11.211 11.211 0 01-4.344.792 11.85 11.85 0 01-4.8-1.009 11.2 11.2 0 01-4.19-3.311zM331.87 95.649a1.765 1.765 0 01-.312-.937.787.787 0 01.36-.6.8.8 0 01.648-.215.969.969 0 01.7.359 9.688 9.688 0 003.192 2.881 9.126 9.126 0 004.584 1.1 8.892 8.892 0 003.048-.528 5.73 5.73 0 002.4-1.584 3.764 3.764 0 00.936-2.592 3.7 3.7 0 00-.912-2.616 6.386 6.386 0 00-2.352-1.56 22.522 22.522 0 00-3.024-.96q-1.682-.432-3.192-.984a10.681 10.681 0 01-2.664-1.392 6.516 6.516 0 01-1.824-1.992 5.321 5.321 0 01-.672-2.736 5.85 5.85 0 011.008-3.359 6.72 6.72 0 012.832-2.329 10.014 10.014 0 014.224-.839 11.242 11.242 0 012.448.288 10.113 10.113 0 012.592.983 8.783 8.783 0 012.4 1.944.791.791 0 01.36.7 1.138 1.138 0 01-.36.743 1.1 1.1 0 01-.624.192.724.724 0 01-.576-.288 7.817 7.817 0 00-2.9-2.063 9.274 9.274 0 00-3.528-.673 8.149 8.149 0 00-2.952.528 5.37 5.37 0 00-2.232 1.561 3.934 3.934 0 00-.864 2.615 3.716 3.716 0 001.032 2.448 7.086 7.086 0 002.5 1.584 31.416 31.416 0 003.528 1.153 26.613 26.613 0 012.952.887 9.485 9.485 0 012.4 1.273 5.548 5.548 0 011.632 1.92 6.2 6.2 0 01.6 2.88 5.7 5.7 0 01-1.08 3.479 6.9 6.9 0 01-2.976 2.257 11.211 11.211 0 01-4.344.792 11.853 11.853 0 01-4.8-1.009 11.2 11.2 0 01-4.188-3.311zM356.5 71.5a1.707 1.707 0 01-1.225-.432 1.448 1.448 0 01-.456-1.1v-.385a1.418 1.418 0 01.48-1.1 1.79 1.79 0 011.248-.433 1.574 1.574 0 011.128.433 1.453 1.453 0 01.456 1.1v.385a1.452 1.452 0 01-.456 1.1 1.64 1.64 0 01-1.175.432zm.96 27.024a.986.986 0 01-.96.96.9.9 0 01-.7-.288.961.961 0 01-.263-.672v-22.8a.984.984 0 01.96-.96.894.894 0 01.695.288.962.962 0 01.265.672zM376.317 74.769a9.074 9.074 0 014.92 1.2 7.109 7.109 0 012.784 3.264 11.54 11.54 0 01.888 4.607v14.688a.984.984 0 01-.96.96.894.894 0 01-.7-.288.961.961 0 01-.264-.672v-14.5a9.721 9.721 0 00-.7-3.744 5.858 5.858 0 00-2.208-2.687 7.021 7.021 0 00-3.96-1.009A9.131 9.131 0 00372 77.6a9.687 9.687 0 00-3.336 2.687 5.916 5.916 0 00-1.32 3.744v14.5a.984.984 0 01-.96.96.9.9 0 01-.7-.288.957.957 0 01-.264-.672V76.5a.984.984 0 01.96-.96.9.9 0 01.7.288.969.969 0 01.264.672v4.7l-1.2 2.3a6.547 6.547 0 01.912-3.312 10.217 10.217 0 012.4-2.807 11.9 11.9 0 013.288-1.921 9.875 9.875 0 013.573-.691zM402.813 74.769a10.518 10.518 0 014.032.767 11.588 11.588 0 013.288 2.017 10.075 10.075 0 012.208 2.687 5.852 5.852 0 01.792 2.832l-.624-1.776V76.5a.965.965 0 01.264-.672.986.986 0 011.393 0 .973.973 0 01.263.672v20.637a12.822 12.822 0 01-1.512 6.384 10.41 10.41 0 01-4.152 4.128 12.645 12.645 0 01-6.144 1.439 15.341 15.341 0 01-3.864-.5 12.585 12.585 0 01-3.24-1.271q-1.3-.77-1.3-1.632a.894.894 0 01.216-.624.765.765 0 01.6-.241 1.138 1.138 0 01.888.529 3.515 3.515 0 001.464.96l1.176.384a12.575 12.575 0 001.8.408 15.165 15.165 0 002.352.168 9.33 9.33 0 007.176-2.809 10.307 10.307 0 002.616-7.319v-4.756l.48.048a10.216 10.216 0 01-1.68 3.5 9.62 9.62 0 01-2.519 2.328 10.667 10.667 0 01-2.977 1.3 11.893 11.893 0 01-3 .408 10.854 10.854 0 01-5.928-1.656 11.89 11.89 0 01-4.152-4.513 14.334 14.334 0 010-12.911 11.691 11.691 0 014.152-4.489 10.972 10.972 0 015.932-1.631zm.1 1.823a9.293 9.293 0 00-5.016 1.392 9.739 9.739 0 00-3.5 3.816 12.665 12.665 0 000 11.064 9.864 9.864 0 003.5 3.865 9.166 9.166 0 005.016 1.416 9.278 9.278 0 004.992-1.369 9.777 9.777 0 003.5-3.792 12.92 12.92 0 000-11.28 9.61 9.61 0 00-3.5-3.767 9.412 9.412 0 00-4.996-1.345zM199.872 123.489a9.551 9.551 0 014.776 1.152 8.074 8.074 0 013.168 3.216 9.852 9.852 0 011.128 4.8 10.314 10.314 0 01-1.128 4.848 8.567 8.567 0 01-3.168 3.408 8.969 8.969 0 01-4.776 1.248h-10.656l.192-.336v14.3a.888.888 0 01-.312.672 1 1 0 01-.7.288.946.946 0 01-1.008-.96v-31.68a.984.984 0 01.96-.96zm0 16.752a6.922 6.922 0 003.768-.984 6.646 6.646 0 002.424-2.712 8.574 8.574 0 00.864-3.888 7.954 7.954 0 00-.864-3.816 6.348 6.348 0 00-2.424-2.52 7.346 7.346 0 00-3.768-.912h-10.608l.144-.24v15.216l-.192-.144zM216.047 129.1a1.7 1.7 0 01-1.223-.432 1.449 1.449 0 01-.456-1.1v-.384a1.419 1.419 0 01.48-1.1 1.791 1.791 0 011.248-.432 1.581 1.581 0 011.128.432 1.454 1.454 0 01.456 1.1v.384a1.452 1.452 0 01-.456 1.1 1.643 1.643 0 01-1.177.432zm.96 27.024a.982.982 0 01-.96.96.9.9 0 01-.695-.288.96.96 0 01-.265-.672v-22.8a.984.984 0 01.96-.96.9.9 0 01.7.288.967.967 0 01.263.672zM236.112 132.849a10.433 10.433 0 015.712 1.584 11.325 11.325 0 013.96 4.344 14.287 14.287 0 010 12.6 11.387 11.387 0 01-3.985 4.392 10.337 10.337 0 01-5.687 1.608 10.2 10.2 0 01-3.049-.456 10.3 10.3 0 01-2.712-1.3 10.694 10.694 0 01-2.279-2.088 13.973 13.973 0 01-1.8-2.832l.624-.672v15.7a.961.961 0 01-.264.671.9.9 0 01-.7.289.986.986 0 01-.96-.96v-31.92a.96.96 0 01.265-.672.984.984 0 011.391 0 .963.963 0 01.264.672v6.144l-.624-.336a11.741 11.741 0 011.681-3.072 8.986 8.986 0 012.3-2.112 9.786 9.786 0 012.785-1.2 12.279 12.279 0 013.078-.384zm-.1 1.824a8.712 8.712 0 00-4.823 1.344 9.364 9.364 0 00-3.288 3.672 11.614 11.614 0 00-1.2 5.4 11.8 11.8 0 001.2 5.4 9.282 9.282 0 003.288 3.72 9.241 9.241 0 009.6 0 9.464 9.464 0 003.312-3.72 11.621 11.621 0 001.225-5.4 11.476 11.476 0 00-1.225-5.376 9.518 9.518 0 00-3.312-3.7 8.628 8.628 0 00-4.774-1.34zM264.142 157.569a12.848 12.848 0 01-6.359-1.536 11.111 11.111 0 01-4.344-4.344 13.2 13.2 0 01-1.584-6.6 14.026 14.026 0 011.56-6.864 11.384 11.384 0 014.032-4.344 9.9 9.9 0 015.256-1.512 12.227 12.227 0 013.935.648 9.681 9.681 0 013.433 2.016 10.323 10.323 0 012.447 3.408 12.661 12.661 0 011.032 4.872 1 1 0 01-.288.7.883.883 0 01-.672.312h-19.584l-.288-1.824h19.345l-.481.432v-.864a7.912 7.912 0 00-1.608-4.272 8.949 8.949 0 00-3.287-2.616 9.391 9.391 0 00-3.984-.888 7.993 7.993 0 00-3.025.648 9.09 9.09 0 00-2.928 1.968 9.97 9.97 0 00-2.183 3.336 13.185 13.185 0 00.336 10.08 9.432 9.432 0 003.5 3.936 10.435 10.435 0 005.735 1.488 8.467 8.467 0 003.072-.553 9.746 9.746 0 002.592-1.463 8.941 8.941 0 001.872-1.968 1.1 1.1 0 01.817-.432.755.755 0 01.576.264.874.874 0 01.239.6.9.9 0 01-.191.577 14.242 14.242 0 01-3.817 3.36 9.612 9.612 0 01-5.156 1.435zM282 156.129a.986.986 0 01-.96.96.9.9 0 01-.7-.288.962.962 0 01-.263-.672v-33.6a.984.984 0 01.96-.96.9.9 0 01.695.288.966.966 0 01.265.672zM291.166 129.1a1.707 1.707 0 01-1.225-.432 1.449 1.449 0 01-.456-1.1v-.384a1.419 1.419 0 01.48-1.1 1.794 1.794 0 011.248-.432 1.577 1.577 0 011.128.432 1.454 1.454 0 01.456 1.1v.384a1.452 1.452 0 01-.456 1.1 1.64 1.64 0 01-1.175.432zm.959 27.024a.984.984 0 01-.959.96.9.9 0 01-.7-.288.958.958 0 01-.263-.672v-22.8a.984.984 0 01.96-.96.9.9 0 01.695.288.963.963 0 01.264.672zM310.989 132.369a9.083 9.083 0 014.92 1.2 7.109 7.109 0 012.784 3.264 11.545 11.545 0 01.888 4.608v14.688a.986.986 0 01-.96.96.9.9 0 01-.7-.288.963.963 0 01-.264-.672v-14.5a9.721 9.721 0 00-.7-3.744 5.867 5.867 0 00-2.208-2.688 7.021 7.021 0 00-3.96-1.009 9.138 9.138 0 00-4.129 1.009 9.7 9.7 0 00-3.336 2.688 5.921 5.921 0 00-1.319 3.744v14.5a.984.984 0 01-.96.96.9.9 0 01-.7-.288.959.959 0 01-.264-.672V134.1a.984.984 0 01.96-.96.9.9 0 01.7.288.968.968 0 01.264.672v4.7l-1.2 2.3a6.544 6.544 0 01.912-3.312 10.217 10.217 0 012.4-2.808 11.9 11.9 0 013.289-1.92 9.877 9.877 0 013.583-.691zM338.157 157.569a12.846 12.846 0 01-6.36-1.536 11.117 11.117 0 01-4.344-4.344 13.215 13.215 0 01-1.584-6.6 14.037 14.037 0 011.56-6.864 11.384 11.384 0 014.032-4.344 9.907 9.907 0 015.256-1.512 12.229 12.229 0 013.936.648 9.672 9.672 0 013.431 2.016 10.328 10.328 0 012.449 3.408 12.679 12.679 0 011.032 4.872 1 1 0 01-.288.7.887.887 0 01-.672.312h-19.584l-.288-1.824h19.344l-.48.432v-.864a7.92 7.92 0 00-1.608-4.272 8.961 8.961 0 00-3.288-2.616 9.4 9.4 0 00-3.984-.888 7.985 7.985 0 00-3.024.648 9.079 9.079 0 00-2.928 1.968 9.972 9.972 0 00-2.184 3.336 13.2 13.2 0 00.335 10.08 9.455 9.455 0 003.5 3.936 10.439 10.439 0 005.736 1.488 8.467 8.467 0 003.072-.553 9.761 9.761 0 002.592-1.463 8.988 8.988 0 001.872-1.968 1.1 1.1 0 01.816-.432.75.75 0 01.575.264.867.867 0 01.241.6.9.9 0 01-.192.577 14.222 14.222 0 01-3.816 3.36 9.62 9.62 0 01-5.155 1.435zM72.879 0L0 42.076v84.153l72.879 42.077 72.878-42.077V42.076L72.879 0z"/></svg>